<?xml version="1.0" encoding="UTF-8" standalone="no"?>
<svg xmlns:dc="http://purl.org/dc/elements/1.1/" xmlns:cc="http://creativecommons.org/ns#" xmlns:rdf="http://www.w3.org/1999/02/22-rdf-syntax-ns#" xmlns:svg="http://www.w3.org/2000/svg" xmlns="http://www.w3.org/2000/svg" id="svg8" version="1.1" viewBox="0 0 203.20001 63.5" height="2.5in" width="8in">
  <defs id="defs2">
    <filter height="1.2311012" y="-0.11555061" width="1.0684355" x="-0.034217782" id="filter1299" style="color-interpolation-filters:sRGB">
      <feGaussianBlur id="feGaussianBlur1301" stdDeviation="4.3974407" />
    </filter>
    <filter height="1.2311012" y="-0.11555061" width="1.0684355" x="-0.034217782" id="filter1299-0" style="color-interpolation-filters:sRGB">
      <feGaussianBlur id="feGaussianBlur1301-6" stdDeviation="4.3974407" />
    </filter>
    <filter height="1.2311012" y="-0.11555061" width="1.0684355" x="-0.034217782" id="filter1299-0-5" style="color-interpolation-filters:sRGB">
      <feGaussianBlur id="feGaussianBlur1301-6-7" stdDeviation="4.3974407" />
    </filter>
    <filter height="1.2311012" y="-0.11555061" width="1.0684355" x="-0.034217782" id="filter1299-0-5-7" style="color-interpolation-filters:sRGB">
      <feGaussianBlur id="feGaussianBlur1301-6-7-0" stdDeviation="4.3974407" />
    </filter>
  </defs>
  <metadata id="metadata5">
    <rdf:RDF>
      <cc:Work rdf:about="">
        <dc:format>image/svg+xml</dc:format>
        <dc:type rdf:resource="http://purl.org/dc/dcmitype/StillImage" />
        <dc:title></dc:title>
      </cc:Work>
    </rdf:RDF>
  </metadata>
  <g transform="translate(0,-233.5)" id="layer1">
    <g style="opacity:0.98000004" transform="matrix(0.60201579,0,0,0.65860282,101.64458,178.74216)" id="g1896">
      <path style="opacity:0.68000034;fill:#808080;fill-opacity:1;stroke:none;stroke-width:1.26672506;stroke-linecap:round;stroke-linejoin:round;stroke-miterlimit:4;stroke-dasharray:none;stroke-dashoffset:0;stroke-opacity:0.16298343;paint-order:stroke fill markers;filter:url(#filter1299)" d="m 114.87708,104.56584 284.46988,-6.949013 c 6.11661,-0.14941 13.08256,12.145983 12.915,26.519023 l -0.53454,45.8517 c -0.13328,11.43327 -6.65732,16.09554 -10.77685,17.96638 -4.11952,1.87083 -279.12448,0.53454 -279.12448,0.53454 -6.11827,-0.0469 -17.99313,-7.60141 -17.99313,-19.03546 v -44.24808 c 0,-11.43406 4.9275,-20.48967 11.04412,-20.63909 z" id="rect852" transform="matrix(0.28952985,0,0,0.28952985,31.95341,69.675466)" />
      <rect style="opacity:1;fill:#ecff00;fill-opacity:1;stroke:none;stroke-width:0.57905972;stroke-linecap:round;stroke-linejoin:round;stroke-miterlimit:4;stroke-dasharray:none;stroke-dashoffset:0;stroke-opacity:0.16298343;paint-order:stroke fill markers" id="rect815" width="89.144638" height="27.083874" x="61.823063" y="96.545601" ry="6.9644256" />
      <path style="opacity:1;fill:#000000;fill-opacity:1;stroke:none;stroke-width:0.55846959;stroke-linecap:round;stroke-linejoin:round;stroke-miterlimit:4;stroke-dasharray:none;stroke-dashoffset:0;stroke-opacity:0.16298343;paint-order:stroke fill markers" d="m 89.951592,96.468206 h -21.21416 c -3.852367,0 -6.95373,2.86101 -6.95373,6.414814 v 14.40903 c 0,3.55381 3.101363,6.41481 6.95373,6.41481 h 21.21416 z" id="rect834" />
      <path style="opacity:1;fill:#f9f9f9;fill-opacity:1;stroke:none;stroke-width:0.48010671;stroke-linecap:round;stroke-linejoin:round;stroke-miterlimit:4;stroke-dasharray:none;stroke-dashoffset:0;stroke-opacity:0.16298343;paint-order:stroke fill markers" d="m 65.730512,99.950396 v 20.274274 h 20.27428 V 99.950396 Z m 1.66811,1.668114 h 16.93793 v 16.93805 h -16.93793 z" id="rect826" />
      <text xml:space="preserve" style="font-style:normal;font-weight:normal;font-size:10.7246685px;line-height:1.25;font-family:sans-serif;letter-spacing:0px;word-spacing:0px;fill:#f9f9f9;fill-opacity:1;stroke:none;stroke-width:0.07660477" x="71.57325" y="116.81982" id="text846"><tspan id="tspan844" x="71.57325" y="116.81982" style="font-style:normal;font-variant:normal;font-weight:bold;font-stretch:normal;font-size:10.7246685px;font-family:Bahnschrift;-inkscape-font-specification:'Bahnschrift, Bold';font-variant-ligatures:normal;font-variant-caps:normal;font-variant-numeric:normal;font-feature-settings:normal;text-align:start;writing-mode:lr-tb;text-anchor:start;fill:#f9f9f9;stroke-width:0.07660477">JS</tspan></text>
      <text xml:space="preserve" style="font-style:normal;font-variant:normal;font-weight:bold;font-stretch:semi-condensed;font-size:10.7246685px;line-height:1.25;font-family:Bahnschrift;-inkscape-font-specification:'Bahnschrift, Bold Semi-Condensed';font-variant-ligatures:normal;font-variant-caps:normal;font-variant-numeric:normal;font-feature-settings:normal;text-align:start;letter-spacing:0px;word-spacing:0px;writing-mode:lr-tb;text-anchor:start;fill:#000000;fill-opacity:1;stroke:none;stroke-width:0.07660477" x="95.407066" y="114.34357" id="text850"><tspan id="tspan848" x="95.407066" y="114.34357" style="font-style:normal;font-variant:normal;font-weight:bold;font-stretch:semi-condensed;font-size:10.7246685px;font-family:Bahnschrift;-inkscape-font-specification:'Bahnschrift, Bold Semi-Condensed';font-variant-ligatures:normal;font-variant-caps:normal;font-variant-numeric:normal;font-feature-settings:normal;text-align:start;writing-mode:lr-tb;text-anchor:start;stroke-width:0.07660477">Javascript</tspan></text>
    </g>
    <g style="opacity:0.98000004" transform="matrix(0.60201579,0,0,0.65860282,-78.18319,205.55877)" id="g1886">
      <path style="opacity:0.68000034;fill:#808080;fill-opacity:1;stroke:none;stroke-width:1.26672506;stroke-linecap:round;stroke-linejoin:round;stroke-miterlimit:4;stroke-dasharray:none;stroke-dashoffset:0;stroke-opacity:0.16298343;paint-order:stroke fill markers;filter:url(#filter1299-0)" d="m 114.87708,104.56584 284.46988,-6.949013 c 6.11661,-0.14941 13.08256,12.145983 12.915,26.519023 l -0.53454,45.8517 c -0.13328,11.43327 -6.65732,16.09554 -10.77685,17.96638 -4.11952,1.87083 -279.12448,0.53454 -279.12448,0.53454 -6.11827,-0.0469 -17.99313,-7.60141 -17.99313,-19.03546 v -44.24808 c 0,-11.43406 4.9275,-20.48967 11.04412,-20.63909 z" id="rect852-4" transform="matrix(0.29380939,0,0,0.29380939,120.65654,69.2783)" />
      <rect style="opacity:1;fill:#c7c8dd;fill-opacity:1;stroke:none;stroke-width:0.58761883;stroke-linecap:round;stroke-linejoin:round;stroke-miterlimit:4;stroke-dasharray:none;stroke-dashoffset:0;stroke-opacity:0.16298343;paint-order:stroke fill markers" id="rect815-7" width="90.462288" height="27.4842" x="150.9677" y="96.545601" ry="7.0673671" />
      <path style="opacity:1;fill:#ececec;fill-opacity:1;stroke:none;stroke-width:0.5667243;stroke-linecap:round;stroke-linejoin:round;stroke-miterlimit:4;stroke-dasharray:none;stroke-dashoffset:0;stroke-opacity:0.16298343;paint-order:stroke fill markers" d="m 179.51199,96.467064 h -21.52772 c -3.90931,0 -7.05651,2.903305 -7.05651,6.509636 v 14.62201 c 0,3.60634 3.1472,6.50962 7.05651,6.50962 h 21.52772 z" id="rect834-3" />
      <text xml:space="preserve" style="font-style:normal;font-variant:normal;font-weight:normal;font-stretch:normal;font-size:12.58420563px;line-height:1.25;font-family:'Eras Demi ITC';-inkscape-font-specification:'Eras Demi ITC, Normal';font-variant-ligatures:normal;font-variant-caps:normal;font-variant-numeric:normal;font-feature-settings:normal;text-align:center;letter-spacing:0px;word-spacing:0px;writing-mode:lr-tb;text-anchor:middle;fill:#ffffff;fill-opacity:1;stroke:none;stroke-width:0.07773708" x="209.62459" y="113.75919" id="text850-2"><tspan id="tspan1345" x="209.62459" y="113.75919" style="stroke-width:0.07773708">php</tspan></text>
      <ellipse style="opacity:1;fill:#7f7eb7;fill-opacity:1;stroke:none;stroke-width:0.12709717;stroke-linecap:round;stroke-linejoin:round;stroke-miterlimit:4;stroke-dasharray:none;stroke-dashoffset:0;stroke-opacity:0.16298343;paint-order:stroke fill markers" id="path1347" cx="165.54131" cy="110.52215" rx="9.2514877" ry="5.4448853" />
      <text xml:space="preserve" style="font-style:italic;font-variant:normal;font-weight:normal;font-stretch:normal;font-size:6.67807722px;line-height:1.25;font-family:sans-serif;-inkscape-font-specification:'sans-serif, Italic';font-variant-ligatures:normal;font-variant-caps:normal;font-variant-numeric:normal;font-feature-settings:normal;text-align:start;letter-spacing:0px;word-spacing:0px;writing-mode:lr-tb;text-anchor:start;fill:#000000;fill-opacity:1;stroke:#ffffff;stroke-width:0.12709717;stroke-miterlimit:4;stroke-dasharray:none;stroke-opacity:1" x="159.37364" y="112.11225" id="text1351"><tspan id="tspan1349" x="159.37364" y="112.11225" style="font-style:italic;font-variant:normal;font-weight:normal;font-stretch:normal;font-size:6.67807722px;font-family:sans-serif;-inkscape-font-specification:'sans-serif, Italic';font-variant-ligatures:normal;font-variant-caps:normal;font-variant-numeric:normal;font-feature-settings:normal;text-align:start;writing-mode:lr-tb;text-anchor:start;stroke:#ffffff;stroke-width:0.12709717;stroke-miterlimit:4;stroke-dasharray:none;stroke-opacity:1">php</tspan></text>
    </g>
    <g style="opacity:0.98000004" transform="matrix(0.60201579,0,0,0.65860282,-137.71275,178.31257)" id="g1910">
      <path style="opacity:0.68000034;fill:#808080;fill-opacity:1;stroke:none;stroke-width:1.26672506;stroke-linecap:round;stroke-linejoin:round;stroke-miterlimit:4;stroke-dasharray:none;stroke-dashoffset:0;stroke-opacity:0.16298343;paint-order:stroke fill markers;filter:url(#filter1299-0-5)" d="m 114.87708,104.56584 284.46988,-6.949013 c 6.11661,-0.14941 13.08256,12.145983 12.915,26.519023 l -0.53454,45.8517 c -0.13328,11.43327 -6.65732,16.09554 -10.77685,17.96638 -4.11952,1.87083 -279.12448,0.53454 -279.12448,0.53454 -6.11827,-0.0469 -17.99313,-7.60141 -17.99313,-19.03546 v -44.24808 c 0,-11.43406 4.9275,-20.48967 11.04412,-20.63909 z" id="rect852-4-2" transform="matrix(0.29386944,0,0,0.29399885,220.03118,69.260722)" />
      <rect style="opacity:0.98999999;fill:#f06529;fill-opacity:1;stroke:none;stroke-width:0.58786833;stroke-linecap:round;stroke-linejoin:round;stroke-miterlimit:4;stroke-dasharray:none;stroke-dashoffset:0;stroke-opacity:0.16298343;paint-order:stroke fill markers" id="rect815-7-5" width="90.480774" height="27.501923" x="250.34853" y="96.545601" ry="7.0719247" />
      <path style="opacity:1;fill:#ececec;fill-opacity:1;stroke:none;stroke-width:0.56696486;stroke-linecap:round;stroke-linejoin:round;stroke-miterlimit:4;stroke-dasharray:none;stroke-dashoffset:0;stroke-opacity:0.16298343;paint-order:stroke fill markers" d="m 278.89866,96.467015 h -21.53212 c -3.91011,0 -7.05795,2.905183 -7.05795,6.513835 v 14.63143 c 0,3.60867 3.14784,6.51382 7.05795,6.51382 h 21.53212 z" id="rect834-3-3" />
      <text xml:space="preserve" style="font-style:normal;font-variant:normal;font-weight:bold;font-stretch:normal;font-size:12.58980942px;line-height:1.25;font-family:Arial;-inkscape-font-specification:'Arial, Bold';font-variant-ligatures:normal;font-variant-caps:normal;font-variant-numeric:normal;font-feature-settings:normal;text-align:center;letter-spacing:0px;word-spacing:0px;writing-mode:lr-tb;text-anchor:middle;fill:#ffffff;fill-opacity:1;stroke:none;stroke-width:0.0777701" x="309.89749" y="114.35429" id="text850-2-9" transform="scale(0.99977994,1.0002201)"><tspan id="tspan1345-5" x="309.89749" y="114.35429" style="font-style:normal;font-variant:normal;font-weight:bold;font-stretch:normal;font-size:12.58980942px;font-family:Arial;-inkscape-font-specification:'Arial, Bold';font-variant-ligatures:normal;font-variant-caps:normal;font-variant-numeric:normal;font-feature-settings:normal;text-align:center;writing-mode:lr-tb;text-anchor:middle;fill:#ffffff;stroke-width:0.0777701">HTML</tspan></text>
      <path style="opacity:0.98999999;fill:#f0652a;fill-opacity:0.99607843;stroke:#ffffff;stroke-width:0.0752551;stroke-linecap:round;stroke-linejoin:round;stroke-miterlimit:4;stroke-dasharray:none;stroke-dashoffset:0;stroke-opacity:1;paint-order:stroke fill markers" d="m 257.72646,102.76434 0.70108,14.69452 6.60879,1.81501 7.08089,-1.81501 0.83451,-14.6684 z m 4.72137,3.0331 h 6.15337 v 1.20235 h -4.82792 v 2.72077 c 0.19687,-0.0184 0.39832,-0.0321 0.60435,-0.0412 0.20603,-0.009 0.38458,-0.0137 0.53567,-0.0137 0.55399,0 1.0393,0.0481 1.45593,0.14429 0.41664,0.0916 0.79893,0.2565 1.1469,0.49468 0.36626,0.25192 0.65013,0.57713 0.85158,0.97563 0.20144,0.39849 0.30217,0.89776 0.30217,1.4978 0,0.47636 -0.087,0.93211 -0.26097,1.36725 -0.17397,0.43514 -0.41205,0.80158 -0.71423,1.0993 -0.32964,0.32063 -0.72339,0.56797 -1.18122,0.74202 -0.45327,0.16948 -0.97979,0.25422 -1.57955,0.25422 -0.55857,0 -1.09653,-0.0596 -1.61389,-0.17863 -0.51736,-0.11452 -0.9546,-0.25422 -1.31171,-0.41912 v -1.4497 h 0.0961 c 0.37543,0.23819 0.81496,0.44202 1.31859,0.61149 0.50361,0.16489 0.99809,0.24735 1.4834,0.24735 0.32506,0 0.63868,-0.0458 0.94086,-0.13742 0.30675,-0.0916 0.57916,-0.25192 0.81724,-0.48094 0.20145,-0.19696 0.35254,-0.43286 0.45326,-0.70767 0.10531,-0.27483 0.15796,-0.59317 0.15796,-0.95502 0,-0.3527 -0.0618,-0.65043 -0.18543,-0.89319 -0.11904,-0.24275 -0.28615,-0.43743 -0.50133,-0.584 -0.23808,-0.17406 -0.52881,-0.29544 -0.87219,-0.36414 -0.3388,-0.0733 -0.7188,-0.10993 -1.14002,-0.10993 -0.4029,0 -0.79207,0.0275 -1.16749,0.0824 -0.37085,0.055 -0.69134,0.10993 -0.96147,0.1649 z" id="rect1410" />
    </g>
    <g id="text1415" style="font-style:normal;font-variant:normal;font-weight:normal;font-stretch:condensed;font-size:37.04166794px;line-height:1.25;font-family:'Franklin Gothic Medium Cond';-inkscape-font-specification:'Franklin Gothic Medium Cond, Condensed';font-variant-ligatures:normal;font-variant-caps:normal;font-variant-numeric:normal;font-feature-settings:normal;text-align:start;letter-spacing:0px;word-spacing:0px;writing-mode:lr-tb;text-anchor:start;fill:#000000;fill-opacity:1;stroke:none;stroke-width:0.26458332" aria-label="5" />
    <g style="opacity:0.98000004" transform="matrix(0.60201579,0,0,0.65860282,-137.71907,176.33564)" id="g1868">
      <path style="opacity:0.68000034;fill:#808080;fill-opacity:1;stroke:none;stroke-width:1.26672506;stroke-linecap:round;stroke-linejoin:round;stroke-miterlimit:4;stroke-dasharray:none;stroke-dashoffset:0;stroke-opacity:0.16298343;paint-order:stroke fill markers;filter:url(#filter1299-0-5-7)" d="m 114.87708,104.56584 284.46988,-6.949013 c 6.11661,-0.14941 13.08256,12.145983 12.915,26.519023 l -0.53454,45.8517 c -0.13328,11.43327 -6.65732,16.09554 -10.77685,17.96638 -4.11952,1.87083 -279.12448,0.53454 -279.12448,0.53454 -6.11827,-0.0469 -17.99313,-7.60141 -17.99313,-19.03546 v -44.24808 c 0,-11.43406 4.9275,-20.48967 11.04412,-20.63909 z" id="rect852-4-2-3" transform="matrix(0.29667828,0,0,0.29680895,324.49183,71.497109)" />
      <rect style="opacity:0.98999999;fill:#1e90ff;fill-opacity:0.99607843;stroke:none;stroke-width:0.59348732;stroke-linecap:round;stroke-linejoin:round;stroke-miterlimit:4;stroke-dasharray:none;stroke-dashoffset:0;stroke-opacity:0.16298343;paint-order:stroke fill markers" id="rect815-7-5-6" width="91.345604" height="27.764788" x="355.09894" y="99.042793" ry="7.1395192" />
      <path style="opacity:1;fill:#f9f9f9;fill-opacity:1;stroke:none;stroke-width:0.57238406;stroke-linecap:round;stroke-linejoin:round;stroke-miterlimit:4;stroke-dasharray:none;stroke-dashoffset:0;stroke-opacity:0.16298343;paint-order:stroke fill markers" d="m 383.92198,98.963442 h -21.73793 c -3.94748,0 -7.12541,2.932958 -7.12541,6.576108 v 14.77127 c 0,3.64316 3.17793,6.57608 7.12541,6.57608 h 21.73793 z" id="rect834-3-3-2" />
      <text xml:space="preserve" style="font-style:normal;font-variant:normal;font-weight:bold;font-stretch:normal;font-size:12.71014404px;line-height:1.25;font-family:Arial;-inkscape-font-specification:'Arial, Bold';font-variant-ligatures:normal;font-variant-caps:normal;font-variant-numeric:normal;font-feature-settings:normal;text-align:center;letter-spacing:0px;word-spacing:0px;writing-mode:lr-tb;text-anchor:middle;fill:#ffffff;fill-opacity:1;stroke:none;stroke-width:0.07851344" x="415.23965" y="117.02133" id="text850-2-9-5" transform="scale(0.99977994,1.0002201)"><tspan id="tspan1345-5-5" x="415.23965" y="117.02133" style="font-style:normal;font-variant:normal;font-weight:bold;font-stretch:normal;font-size:12.71014404px;font-family:Arial;-inkscape-font-specification:'Arial, Bold';font-variant-ligatures:normal;font-variant-caps:normal;font-variant-numeric:normal;font-feature-settings:normal;text-align:center;writing-mode:lr-tb;text-anchor:middle;fill:#ffffff;stroke-width:0.07851344">CSS</tspan></text>
      <path style="opacity:1;fill:#1e90ff;fill-opacity:0.99607843;stroke:none;stroke-width:0.1308409;stroke-linecap:round;stroke-linejoin:round;stroke-miterlimit:4;stroke-dasharray:none;stroke-dashoffset:0;stroke-opacity:1;paint-order:stroke fill markers" d="m 376.59076,105.66938 -7.2e-4,0.007 h -11.7596 l -0.33343,2.75994 h 11.88163 l -0.33961,2.71721 h -11.87025 l -0.28648,2.37183 h 3.16295 l 8.49166,0.0148 -1.09447,4.26501 -4.61532,1.28903 -3.88,-1.28959 0.4972,-1.93733 h -2.84499 l -0.60108,4.97518 h 14.27244 l 1.83303,-15.17363 z" id="rect1683" />
    </g>
    <text transform="scale(0.92652929,1.0792967)" id="text2272" y="264.15002" x="83.087265" style="font-style:normal;font-weight:normal;font-size:18.83117485px;line-height:1.25;font-family:sans-serif;letter-spacing:0px;word-spacing:0px;opacity:0.98000004;fill:#ff7f2a;fill-opacity:1;stroke:none;stroke-width:0.13450837" xml:space="preserve"><tspan style="font-style:normal;font-variant:normal;font-weight:bold;font-stretch:normal;font-family:'Myanmar Text';-inkscape-font-specification:'Myanmar Text Bold';fill:#ff7f2a;stroke-width:0.13450837" y="264.15002" x="83.087265" id="tspan2270">SQL</tspan></text>
  </g>
</svg>
